<?xml version="1.0" encoding="utf-8"?>
<!-- Generator: Adobe Illustrator 26.0.2, SVG Export Plug-In . SVG Version: 6.00 Build 0)  -->
<svg version="1.1" id="Calque_1" xmlns="http://www.w3.org/2000/svg" xmlns:xlink="http://www.w3.org/1999/xlink" x="0px" y="0px"
	 viewBox="0 0 1500 1500" style="enable-background:new 0 0 1500 1500;" xml:space="preserve">
<style type="text/css">
	.st0{opacity:0.5;fill:#662D91;}
	.st1{fill:#662D91;}
	.st2{opacity:0.7;}
	.st3{fill:#272727;}
</style>
<g id="femme_altere">
	<path class="st0" d="M290.4,280.75L719.16,36.92c40.85-23.23,91.1-23.09,131.82,0.36l427.4,246.19
		c40.72,23.46,65.73,66.67,65.59,113.35l-1.37,490.02c-0.13,46.69-25.38,89.76-66.23,112.99l-428.77,243.83
		c-40.85,23.23-91.1,23.09-131.82-0.36l-427.4-246.19c-40.72-23.46-65.73-66.67-65.6-113.35l1.37-490.02
		C224.3,347.05,249.55,303.98,290.4,280.75z"/>
	<path class="st1" d="M75.57,500.17l428.77-243.83c40.85-23.23,91.1-23.09,131.82,0.36l427.4,246.19
		c40.72,23.46,65.73,66.67,65.59,113.35l-1.37,490.02c-0.13,46.69-25.38,89.76-66.23,112.99l-428.77,243.83
		c-40.85,23.23-91.1,23.09-131.82-0.36l-427.4-246.19c-40.72-23.46-65.73-66.67-65.6-113.35l1.37-490.02
		C9.47,566.47,34.72,523.4,75.57,500.17z"/>
	<g class="st2">
		<path class="st3" d="M1506.27,805.58v167.43h-456.95c-23.31,0-44.42-9.37-59.71-24.52c-15.28-15.15-24.74-36.07-24.74-59.2
			c0-46.24,37.82-83.72,84.45-83.72H1506.27z"/>
		<path class="st3" d="M806.59,1229.23L806.59,1229.23c46.64,0,84.45-37.48,84.45-83.72V633.07c0-46.24-37.81-83.72-84.45-83.72l0,0
			c-46.64,0-84.45,37.48-84.45,83.72v512.44C722.14,1191.75,759.95,1229.23,806.59,1229.23z"/>
		<path class="st3" d="M589.15,1120.09L589.15,1120.09c46.64,0,84.45-37.48,84.45-83.72V742.22c0-46.24-37.81-83.72-84.45-83.72l0,0
			c-46.64,0-84.45,37.48-84.45,83.72v294.15C504.7,1082.6,542.51,1120.09,589.15,1120.09z"/>
	</g>
</g>
</svg>
