<?xml version="1.0" encoding="utf-8"?>
<!-- Generator: Adobe Illustrator 26.0.2, SVG Export Plug-In . SVG Version: 6.00 Build 0)  -->
<svg version="1.1" id="Calque_1" xmlns="http://www.w3.org/2000/svg" xmlns:xlink="http://www.w3.org/1999/xlink" x="0px" y="0px"
	 viewBox="0 0 1500 1500" style="enable-background:new 0 0 1500 1500;" xml:space="preserve">
<style type="text/css">
	.st0{fill:#662D91;}
</style>
<g id="image_00000105388460618380623890000010968020467403151799_">
	<path class="st0" d="M750,463.86c115.96,0,209.96-94.01,209.96-209.97c0-115.96-94-209.96-209.96-209.96
		c-115.96,0-209.96,94-209.96,209.96C540.04,369.85,634.04,463.86,750,463.86z"/>
	<path class="st0" d="M944.9,933.78c6.7,32.97,29.56,60.35,60.82,72.83c25.63,10.24,76.46,26.53,140.08,26.53
		c42.73,0,91.23-7.35,141.75-28.82c102.33-43.49,156.31-121.16,179.38-163.59c26.34-48.44,8.42-109.07-40.02-135.41
		c-48.45-26.33-109.07-8.42-135.41,40.02c-8.57,15.77-33.73,54.66-82.05,75.2c-31.35,13.32-61.61,14.4-85.42,11.57
		c-19.39-58.18-53.43-126.89-113.15-191.13C954.87,580.75,884.3,534.05,806.6,505.68c-16.61-7.34-34.89-11.57-54.16-11.89
		c-22.17-0.37-43.2,4.34-62.03,13.01c-76.52,28.48-146,74.73-201.28,134.2c-59.72,64.24-93.76,132.95-113.15,191.13
		c-23.81,2.84-54.08,1.74-85.42-11.57c-48.32-20.53-73.48-59.43-82.06-75.2c-26.34-48.44-86.96-66.35-135.41-40.01
		C24.65,731.67,6.73,792.3,33.08,840.74c23.07,42.43,77.06,120.1,179.38,163.58c50.52,21.47,99.01,28.82,141.75,28.82
		c63.61,0,114.45-16.29,140.08-26.53c31.25-12.48,54.12-39.86,60.82-72.84c6.63-32.63,21.05-77.51,52.27-122.16v260.29
		l-462.54,191.76c-4.99,2.02-9.78,4.42-14.33,7.19c-10.96,6.64-20.27,15.19-27.7,25.02c-0.19,0.25-0.39,0.5-0.58,0.76
		c-0.61,0.81-1.19,1.65-1.77,2.49c-0.38,0.54-0.76,1.08-1.13,1.63c-0.37,0.56-0.73,1.13-1.09,1.7c-0.54,0.85-1.08,1.69-1.6,2.56
		c-0.17,0.28-0.33,0.58-0.5,0.86c-0.67,1.15-1.33,2.31-1.96,3.49c0,0.01-0.01,0.02-0.01,0.02c-5.17,9.71-8.79,20.36-10.51,31.64
		c-1.29,8.31-1.51,16.83-0.64,25.37c0.01,0.06,0.02,0.12,0.02,0.19c0.16,1.51,0.35,3.02,0.58,4.54c0.07,0.5,0.17,0.98,0.25,1.48
		c0.17,1.06,0.35,2.11,0.56,3.16c0.18,0.93,0.4,1.85,0.61,2.77c0.14,0.61,0.27,1.22,0.42,1.82c0.34,1.35,0.71,2.68,1.09,4.01
		c0.06,0.2,0.11,0.4,0.17,0.59c1.69,5.64,3.87,11.05,6.48,16.22c0.12,0.23,0.23,0.46,0.35,0.68c1.09,2.11,2.22,4.19,3.46,6.21
		c0.08,0.14,0.17,0.26,0.26,0.4c1.03,1.67,2.11,3.3,3.23,4.9c0.45,0.64,0.89,1.27,1.35,1.9c1.11,1.51,2.25,3,3.44,4.45
		c0.59,0.71,1.2,1.4,1.81,2.09c0.77,0.88,1.54,1.74,2.34,2.59c0.68,0.73,1.36,1.46,2.06,2.16c1.25,1.27,2.54,2.5,3.86,3.69
		c0.64,0.58,1.31,1.14,1.96,1.7c1.07,0.92,2.16,1.82,3.27,2.69c0.53,0.41,1.05,0.84,1.58,1.24c1.62,1.23,3.29,2.4,4.99,3.53
		c0.35,0.23,0.71,0.45,1.07,0.68c1.7,1.1,3.42,2.14,5.19,3.14c0.15,0.09,0.3,0.18,0.46,0.26c8.15,4.53,16.99,7.94,26.33,10.06
		c0.26,0.06,0.53,0.13,0.79,0.18c2.15,0.47,4.32,0.88,6.52,1.21c0.45,0.07,0.91,0.11,1.36,0.17c1.58,0.21,3.17,0.39,4.77,0.53
		c0.88,0.08,1.76,0.14,2.64,0.2c1.3,0.08,2.61,0.12,3.92,0.14c0.72,0.01,1.43,0.08,2.15,0.08c0.36,0,0.72-0.02,1.07-0.02h675.83
		c55.98,0,102.87-45.82,101.79-101.79c-1.04-54.24-45.33-97.89-99.82-97.89H690.18c-1.38,0-1.75-1.89-0.48-2.42l60.99-25.29
		c1.3-0.54,2.69-0.82,4.1-0.82h106.46c3.95,0,7.85,0.21,11.72,0.56c0.22,0.02,0.45,0.03,0.67,0.05c1.76,0.17,3.51,0.39,5.25,0.63
		c0.36,0.05,0.72,0.09,1.08,0.14c1.64,0.24,3.27,0.53,4.89,0.84c0.44,0.08,0.9,0.15,1.34,0.24c1.55,0.31,3.08,0.66,4.61,1.02
		c0.5,0.12,1.01,0.22,1.52,0.35c1.47,0.36,2.92,0.77,4.36,1.19c0.55,0.16,1.11,0.3,1.65,0.47c1.4,0.43,2.77,0.88,4.15,1.35
		c0.58,0.2,1.17,0.39,1.75,0.6c1.33,0.47,2.64,0.98,3.95,1.49c0.61,0.24,1.22,0.47,1.82,0.72c1.27,0.52,2.52,1.07,3.76,1.63
		c0.63,0.28,1.25,0.56,1.87,0.85c1.21,0.56,2.4,1.16,3.59,1.77c0.64,0.32,1.28,0.64,1.91,0.98c1.15,0.61,2.29,1.24,3.42,1.88
		c0.64,0.37,1.29,0.73,1.92,1.11c1.09,0.65,2.17,1.32,3.25,2c0.65,0.41,1.3,0.82,1.94,1.24c1.04,0.68,2.06,1.38,3.08,2.1
		c0.65,0.46,1.3,0.91,1.94,1.38c0.98,0.72,1.95,1.45,2.92,2.19c0.65,0.5,1.29,1,1.93,1.52c0.93,0.75,1.85,1.51,2.76,2.28
		c0.64,0.55,1.28,1.1,1.9,1.65c0.88,0.78,1.74,1.56,2.6,2.36c0.63,0.59,1.25,1.18,1.87,1.78c0.82,0.8,1.64,1.61,2.44,2.43
		c0.62,0.64,1.23,1.28,1.83,1.93c0.77,0.82,1.53,1.65,2.28,2.49c0.6,0.68,1.19,1.37,1.78,2.06c0.72,0.84,1.43,1.69,2.13,2.55
		c0.58,0.72,1.15,1.46,1.72,2.19c0.67,0.86,1.33,1.73,1.97,2.61c0.56,0.76,1.11,1.54,1.65,2.31c0.62,0.88,1.23,1.76,1.82,2.66
		c0.54,0.81,1.05,1.63,1.57,2.44c0.56,0.9,1.13,1.79,1.67,2.7c0.51,0.85,0.99,1.71,1.48,2.57c0.51,0.91,1.03,1.81,1.52,2.73
		c0.48,0.89,0.93,1.79,1.38,2.7c0.47,0.92,0.93,1.83,1.37,2.77c0.44,0.93,0.86,1.88,1.28,2.82c0.41,0.93,0.83,1.85,1.22,2.79
		c0.41,0.97,0.78,1.96,1.16,2.94c0.36,0.93,0.73,1.86,1.08,2.81c0.37,1.02,0.7,2.05,1.04,3.08c0.31,0.93,0.63,1.86,0.92,2.8
		c0.33,1.06,0.61,2.14,0.91,3.22c0.26,0.93,0.53,1.85,0.77,2.79c0.28,1.11,0.52,2.24,0.78,3.36c0.21,0.92,0.43,1.83,0.62,2.76
		c0.24,1.17,0.43,2.35,0.63,3.53c0.16,0.9,0.33,1.79,0.47,2.7c0.19,1.25,0.33,2.51,0.48,3.77c0.1,0.85,0.23,1.7,0.32,2.56
		c0.14,1.41,0.23,2.82,0.32,4.24c0.05,0.73,0.13,1.45,0.16,2.18c0.11,2.16,0.16,4.32,0.16,6.5c0,2.38-0.08,4.74-0.21,7.09
		c-0.04,0.75-0.12,1.5-0.17,2.25c-0.12,1.59-0.24,3.18-0.41,4.75c-0.1,0.87-0.22,1.74-0.33,2.6c-0.19,1.45-0.39,2.9-0.63,4.33
		c-0.14,0.88-0.31,1.75-0.47,2.62c-0.26,1.42-0.55,2.84-0.87,4.25c-0.19,0.84-0.38,1.67-0.58,2.5c-0.36,1.47-0.75,2.92-1.16,4.36
		c-0.21,0.74-0.41,1.48-0.63,2.22c-0.49,1.63-1.03,3.25-1.58,4.86c-0.18,0.52-0.34,1.04-0.53,1.56c-1.57,4.36-3.37,8.61-5.38,12.74
		c-0.06,0.12-0.12,0.23-0.18,0.35c-0.94,1.92-1.93,3.8-2.97,5.66c-0.2,0.36-0.41,0.71-0.62,1.07c-0.92,1.62-1.88,3.23-2.86,4.8
		c-0.25,0.4-0.51,0.8-0.77,1.2c-0.99,1.54-2.01,3.06-3.06,4.55c-0.26,0.37-0.52,0.73-0.78,1.09c-1.12,1.56-2.28,3.09-3.47,4.59
		c-0.2,0.26-0.4,0.51-0.61,0.77c-1.38,1.72-2.8,3.41-4.26,5.05c-0.02,0.02-0.04,0.04-0.06,0.07c-4.67,5.24-9.76,10.08-15.22,14.49
		h374.78c0.35,0,0.69,0.02,1.04,0.02c0.69,0,1.38-0.06,2.07-0.08c1.35-0.03,2.69-0.07,4.02-0.15c0.87-0.05,1.73-0.12,2.6-0.2
		c1.64-0.14,3.26-0.32,4.87-0.54c0.42-0.06,0.85-0.1,1.27-0.16c2.22-0.33,4.4-0.74,6.57-1.22c0.24-0.05,0.48-0.11,0.72-0.16
		c9.37-2.12,18.25-5.55,26.41-10.09c0.12-0.06,0.23-0.13,0.35-0.2c1.81-1.02,3.59-2.09,5.33-3.22c0.33-0.21,0.65-0.41,0.97-0.62
		c1.72-1.14,3.41-2.33,5.05-3.58c0.49-0.37,0.97-0.76,1.45-1.14c1.16-0.92,2.3-1.85,3.42-2.82c0.63-0.54,1.27-1.08,1.89-1.64
		c1.33-1.21,2.64-2.46,3.9-3.73c0.68-0.69,1.35-1.4,2.01-2.11c0.82-0.87,1.62-1.77,2.41-2.67c0.59-0.67,1.18-1.33,1.75-2.02
		c1.2-1.46,2.36-2.96,3.48-4.49c0.45-0.61,0.89-1.24,1.32-1.86c1.14-1.62,2.24-3.27,3.28-4.97c0.07-0.11,0.15-0.23,0.22-0.34
		c1.24-2.03,2.38-4.12,3.47-6.24c0.11-0.22,0.22-0.43,0.33-0.66c2.62-5.18,4.8-10.61,6.5-16.25c0.05-0.17,0.09-0.34,0.14-0.5
		c0.4-1.35,0.78-2.72,1.12-4.09c0.15-0.58,0.27-1.16,0.4-1.74c0.22-0.95,0.44-1.9,0.63-2.86c0.21-1.03,0.38-2.05,0.55-3.08
		c0.09-0.52,0.18-1.04,0.26-1.56c0.23-1.49,0.41-2.97,0.57-4.46c0.01-0.08,0.02-0.17,0.03-0.26c0.87-8.53,0.65-17.04-0.64-25.34
		c-1.72-11.28-5.35-21.93-10.52-31.64c0,0,0-0.01-0.01-0.02c-0.63-1.18-1.29-2.34-1.96-3.5c-0.17-0.29-0.33-0.58-0.5-0.86
		c-0.52-0.86-1.06-1.71-1.6-2.55c-0.36-0.57-0.72-1.14-1.09-1.7c-0.37-0.55-0.75-1.08-1.13-1.62c-0.58-0.84-1.16-1.67-1.77-2.5
		c-0.19-0.25-0.38-0.49-0.57-0.74c-7.44-9.83-16.75-18.39-27.72-25.03c-4.54-2.76-9.32-5.15-14.3-7.17l-462.57-191.77V811.62
		C923.85,856.27,938.27,901.14,944.9,933.78z"/>
</g>
</svg>
