<?xml version="1.0" encoding="utf-8"?>
<!-- Generator: Adobe Illustrator 26.0.2, SVG Export Plug-In . SVG Version: 6.00 Build 0)  -->
<svg version="1.1" id="Calque_1" xmlns="http://www.w3.org/2000/svg" xmlns:xlink="http://www.w3.org/1999/xlink" x="0px" y="0px"
	 viewBox="0 0 1500 1500" style="enable-background:new 0 0 1500 1500;" xml:space="preserve">
<style type="text/css">
	.st0{fill:#662D91;}
</style>
<g id="image">
	<path class="st0" d="M1066.57,35.98c-122.72,0-236.14,61.28-311.83,166.27c-2.45,3.4-7.04,3.4-9.48,0
		C669.57,97.26,556.14,35.98,433.43,35.98c-220.93,0-400.66,200.56-400.66,447.08c0,25.34,1.94,50.86,5.77,75.83
		c4.14,31.09,9.95,62.19,17.26,92.43c18.3,75.68,44.59,141.35,76.3,200.52c4.27,7.97,11.96,12.88,20.28,12.88h112.38
		c-0.05-0.07,270.54,0.82,270.54,0.82c15.34,0,28.94-12.05,33.7-28.32l39.11-133.67c0.56-1.91,2.99-1.89,3.53,0.03l78.85,285.95
		c4.49,16.28,17.81,27.52,33.06,27.91c0.27,0,0.55,0.01,0.82,0.01c14.93,0,28.3-10.46,33.36-26.19l57.75-179.51h240.38
		c20.15,0,36.37-18.75,35.41-41.47c-0.9-21.28-17.32-37.64-36.41-37.64H790.53c-14.96,0-28.31,10.48-33.37,26.19l-28.34,88.11
		c-0.6,1.87-2.98,1.81-3.51-0.09L644.8,554.86c-4.54-16.48-18.13-27.77-33.58-27.92c-15.39-0.09-29.21,10.89-34,27.28l-66.13,225.99
		c-0.9,3.09-3.48,5.17-6.39,5.17H228.2c-4.32,0-8.31-2.68-10.28-6.98c-17.59-38.52-32.53-80.5-43.79-127.06
		c-7.15-29.57-11.56-55.89-14.37-77.05c-3.47-22.53-5.08-45.76-4.6-69.51c4.01-197.54,152.52-355.61,329.54-351.08
		c108.78,2.78,204.21,65.76,260.65,160.22c2.38,3.98,7.62,3.98,9.99,0C811.79,219.46,907.22,156.48,1016,153.7
		c177.02-4.53,325.53,153.55,329.54,351.08c0.48,23.75-1.13,46.98-4.6,69.51c-2.81,21.16-7.22,47.48-14.37,77.05
		c-42.75,176.79-138.27,288.17-232.42,391.15c-73.69,80.6-186.41,188.18-343.8,286.76c-157.39-98.58-270.12-206.16-343.8-286.76
		c-26.4-28.88-52.91-58.43-78.33-89.89c-4.49-5.55-10.85-8.77-17.55-8.77h-92.71c-11.92,0-18.42,15.48-10.84,25.74
		c38.88,52.63,81.53,101.05,125.29,148.9c119.23,130.41,255.22,243.84,404.19,337.15l13.41,8.4l13.41-8.4
		c148.97-93.31,284.96-206.74,404.19-337.15c117.25-128.25,226.64-260.48,276.62-467.16c7.31-30.24,13.12-61.33,17.26-92.43
		c3.83-24.98,5.77-50.49,5.77-75.83C1467.24,236.54,1287.5,35.98,1066.57,35.98z"/>
</g>
</svg>
