<?xml version="1.0" encoding="utf-8"?>
<!-- Generator: Adobe Illustrator 26.0.2, SVG Export Plug-In . SVG Version: 6.00 Build 0)  -->
<svg version="1.1" id="Calque_1" xmlns="http://www.w3.org/2000/svg" xmlns:xlink="http://www.w3.org/1999/xlink" x="0px" y="0px"
	 viewBox="0 0 750 750" style="enable-background:new 0 0 750 750;" xml:space="preserve">
<style type="text/css">
	.st0{fill-rule:evenodd;clip-rule:evenodd;fill:#FFFFFF;}
	.st1{fill-rule:evenodd;clip-rule:evenodd;fill:#744394;}
	.st2{fill:#744394;}
	.st3{fill:#FFFFFF;}
	.st4{fill:#929497;}
</style>
<g>
	<g>
		<path class="st0" d="M539.36,112.1h8.08h82.73l-8.08,13.06l0,0l-1.25,2.11c-11.92-5.22-26.21-4.48-37.76,2.98h-12.05h-35.27h-2.73
			c-0.37-3.23-0.51-6.72,0-9.33c0-0.12,0-0.12,0-0.25c0,0,0,0,0.12,0c1.24-1.62,2.61-2.61,3.84-4.36
			C537.87,114.96,538.74,113.59,539.36,112.1L539.36,112.1z M540.36,223.08l5.33-8.71l0,0l26.58-43.05
			c1.74,6.22,6.21,11.57,12.05,15.06l-5.34,8.71c-5.22-3.24-9.81-7.59-13.54-12.69c2.12,6.59,6.21,12.19,11.3,16.29l-3.6,5.97l0,0
			L551.29,240c-2.36-3.73-4.85-7.34-7.08-10.33C542.72,227.55,541.47,225.44,540.36,223.08L540.36,223.08z M591.17,140.71
			l6.46-10.45h-14.53c11.55-5.72,24.72-5.22,35.52,0.5l-6.21,10.2c-3.48-1.12-7.21-1.74-11.06-1.74
			C597.75,139.22,594.27,139.72,591.17,140.71L591.17,140.71z"/>
	</g>
	<g>
		<path class="st0" d="M271.05,178.29c4.47,0.12,5.34,2.73,2.49,7.59c-3.48,7.59-7.95,14.68-13.29,21.02
			c7.2-2.49,14.66-5.6,22.36-9.46c-8.82,6.1-18.26,11.45-27.95,15.93c-25.34,12.32-38.13,34.71-38.13,67.06
			c-10.68,9.33-16.27,23.14-15.03,37.08c5.59,5.97,7.82,13.56,6.58,22.64c-1.24-9.45-5.09-17.17-11.67-23.27
			c-22.36-7.09-38.01-16.42-47.08-28c-4.47,1.5-9.19,2.37-14.04,2.37c-4.6,0-8.95-0.75-13.17-1.99
			c10.06,16.05,19.5,30.86,28.32,44.29c13.54,19.91,28.7,32.35,45.59,37.2c7.45,8.33,14.78,9.83,21.99,4.6
			c26.83-25.75,40.24-49.02,40.24-69.8c-14.53-11.32-21.36-25.13-20.37-41.18c1.49,17.79,8.08,28.99,19.76,33.71
			c4.72,10.7,6.33,22.15,4.97,34.34l80.74,130.88c-1.49-20.15-3.36-54-2.73-57.11c-0.12-6.72-0.12-14.18,0-21.9l-0.25,0.13
			l0.25-0.13c0.5-21.52,2.11-45.41,8.57-63.32l0.5-3.99c0.99-10.33,2.49-22.89,4.72-36.45c-7.21,3.23-15.28,4.48-23.35,3.49
			c-15.53-1.74-28.94-11.57-35.4-25.76c12.3,20.41,38.38,26.87,59.25,19.41c6.58-39.06,19.63-84.97,47.21-105.5
			c-6.33-0.62-13.42-1.24-14.66-1.37c-22.98-5.6-41.48-11.82-55.28-18.79c-12.67-6.22-20.24-12.07-26.33-26
			c-3.35-7.71-5.96-19.16-7.7-34.34c-8.45-32.22-34.78-47.4-65.83-36.08c-17.76,6.47-31.68,20.03-41.86,40.81
			c-2.48,8.46,0.87,14.93,10.19,19.41c1.37,10.45,4.97,18.29,10.69,23.64c2.48,3.11,3.97,7.09,4.34,12.32
			c0.75,5.23-1.11,13.19,2.73,14.93c2.24,0.87,4.72,0.62,7.58-0.75c4.72,3.73,2.73,7.34,5.59,8.71c1.24,0.62,2.73,0.5,4.35-0.25
			c-0.87,2.86,0,4.98,2.48,6.47c4.1,2.98,1.12,5.47,4.47,8.58c1.74,1.61,4.1,2.74,6.59,2.86c6.34,0.25,9.31-5.22,13.66-8.83
			C265.84,181.15,268.45,179.41,271.05,178.29L271.05,178.29z M399.12,309.17c1.98,3.86,3.85,7.22,5.72,10.08
			c0.74-6.1,0.87-12.19,0.62-18.29l-0.12-2.49c-1.74,3.61-3.85,6.97-5.96,10.33L399.12,309.17z M406.08,425.99
			c-0.12,0.87-0.24,1.74-0.37,2.61l1.61-2.61H406.08z M302.86,304.44c-4.47-5.97-6.59-13.44-5.72-20.9
			c-1.74,7.46-0.99,15.42,2.12,22.4c-2.61,9.82-3.36,18.41,0.5,29.86c-4.1,8.46-6.22,18.41-3.73,27.5
			c-0.13-9.83,2.36-19.41,7.21-27.99C298.75,325.59,298.63,314.27,302.86,304.44L302.86,304.44z M291.18,261.27
			c-0.5,16.3-11.56,30.36-27.2,34.71C278.63,288.14,287.32,276.7,291.18,261.27L291.18,261.27z"/>
	</g>
	<g>
		<path class="st0" d="M135.29,208.27c-22.61,0-40.87,18.29-40.87,40.94c0,22.51,18.26,40.81,40.87,40.81
			c22.48,0,40.74-18.29,40.74-40.81C176.03,226.56,157.77,208.27,135.29,208.27L135.29,208.27z M135.29,223.2
			c-14.29,0-25.96,11.69-25.96,26c0,14.31,11.67,25.87,25.96,25.87c14.28,0,25.84-11.57,25.84-25.87
			C161.12,234.89,149.57,223.2,135.29,223.2L135.29,223.2z"/>
	</g>
	<g>
		<path class="st0" d="M135.29,227.93c-11.8,0-21.24,9.46-21.24,21.28c0,11.69,9.44,21.27,21.24,21.27
			c11.68,0,21.24-9.58,21.24-21.27C156.53,237.38,146.96,227.93,135.29,227.93L135.29,227.93z M135.29,242.61
			c-3.73,0-6.59,2.86-6.59,6.6c0,3.6,2.86,6.59,6.59,6.59c3.6,0,6.58-2.99,6.58-6.59C141.87,245.47,138.89,242.61,135.29,242.61
			L135.29,242.61z"/>
	</g>
	<g>
		<path class="st1" d="M486.69,165.35c7.83,4.85,16.65,7.59,18.01-2.62c0.62-4.1,1.98-5.97,4.35-5.97c2.48-0.13,2.98-1.75,1.49-4.73
			c7.45,1.74,6.34-3.98,7.58-9.21c6.95,1.37,10.18,0,9.56-3.98c-0.75-3.73-2.36-12.94-1.24-19.16c1.11-5.6,6.33-4.11,8.45-16.17
			c1.73-9.7,0.87-21.27-2.86-28.74c-7.7-15.55-25.09-25.38-43.72-26c-5.96-0.12-12.43,0.62-19.5,2.37
			c-5.09-1.24-8.94-0.75-11.3,1.24c-13.66-6.84-24.72-8.33-33.42-4.73c-25.09,10.82-22.85,44.29-19.01,66.31
			c2.99,16.8-4.59,24.26-22.73,22.64c6.46,30.36,64.84,24.63,55.77-24.14c-5.21-31.98-0.37-47.03,14.79-45.54
			c-9.82,9.83-13.05,26.38-9.56,49.64c5.46,23.51,1.73,21.65-7.46,37.32l0,0c-3.98,4.98-8.94,9.45-14.91,13.44
			c-50.43,14.18-62.73,106.87-67.2,150.04c2.61-3.61,5.96-7.09,9.94-10.33c-4.47,4.48-7.95,9.45-10.31,14.93
			c-5.96,19.78-8.82,48.02-8.69,84.6c-0.5,2.37,1.24,32.35,3.35,64.45l15.77,25.5l138.75-225.19c-1.11-3.73-2.24-8.34-3.35-15.3
			c1.74,8.95,8.08,20.15,13.92,32.22c8.57,14.31,22.1,28.86,50.05,42.3c10.06,3.98,16.77-1.62,20-16.92
			c7.46-12.81,11.68-30.23,12.79-52.25c0.75-11.45,2.49-26,4.97-43.55c0.37-4.85,0.87-8.71,1.5-11.82
			c-0.75,0.12-1.37,0.12-2.12,0.12c-8.32,0-16.15-2.49-22.61-6.84c0.75,1.61,1.74,2.98,2.98,4.1c1.25,11.32-0.75,23.89-5.6,37.7
			c3.24-3.49,6.84-8.96,10.81-16.05c-2.73,7.71-7.07,14.81-12.67,20.9c-5.47,6.1-9.94,11.94-15.4,20.78
			c0,6.72,0.13,14.93,2.61,21.15c-3.23-5.47-4.85-11.7-4.6-18.04c0.12-9.58-5.59-21.65-17.02-36.33
			c-11.92-17.67-10.3-41.55-34.28-49.89c-6.09-2.11-10.93-2.62-17.64-5.35c-9.82-4.11-8.57-12.07-3.36-13.07
			c-5.83-5.47-6.21-8.58-8.07-13.56C477.76,157.26,481.72,161.99,486.69,165.35L486.69,165.35z M403.97,343.13
			c4.34-13.31,6.34-27.37,5.71-42.42c-0.74-17.3-2.6-42.05-16.02-53.75c5.34,5.97,8.69,14.93,10.06,26.63
			c-1.99,12.94-7.33,26.75-16.14,41.8c-2.24,3.11-3.24,7.09-3.11,12.07c0.62,12.07-5.34,33.72-18.13,64.82
			c-1.99,6.1-2.99,12.69-3.11,19.66c8.44-26.25,21.49-47.9,39.25-64.82c9.44-5.85,27.71-23.14,31.68-40.56
			C429.93,317.51,415.52,337.16,403.97,343.13L403.97,343.13z"/>
	</g>
	<g>
		<path class="st1" d="M600.35,126.29c-21.49,0-38.88,17.41-38.88,38.94c0,21.53,17.4,38.94,38.88,38.94
			c21.49,0,38.88-17.41,38.88-38.94C639.24,143.7,621.84,126.29,600.35,126.29L600.35,126.29z M600.35,140.47
			c-13.66,0-24.71,11.07-24.71,24.76c0,13.68,11.05,24.76,24.71,24.76c13.66,0,24.72-11.07,24.72-24.76
			C625.08,151.54,614.02,140.47,600.35,140.47L600.35,140.47z"/>
	</g>
	<g>
		<path class="st1" d="M600.35,144.94c-11.18,0-20.25,9.09-20.25,20.28s9.07,20.28,20.25,20.28c11.18,0,20.25-9.09,20.25-20.28
			S611.54,144.94,600.35,144.94L600.35,144.94z M600.35,158.88c-3.48,0-6.34,2.86-6.34,6.34c0,3.49,2.85,6.35,6.34,6.35
			c3.48,0,6.33-2.86,6.33-6.35C606.69,161.74,603.84,158.88,600.35,158.88L600.35,158.88z"/>
	</g>
	<g>
		<path class="st0" d="M422.23,169.08l0.25,0.12v-0.25L422.23,169.08L422.23,169.08z M421.97,169.21c-0.12,1.12,0,2.11,0.25,3.24
			c0.87,2.36,2.85,4.23,5.47,4.73c3.72,0.87,8.82-0.62,15.16-4.48c10.93-5.35,23.72-10.82,34.65-3.73c0,0.25-0.12,0.5-0.12,0.74
			c0,0.75,0.12,1.5,0.24,2.24c-3.6,0-20.24,0-27.33,5.85c-9.82,8.09-15.15,29.61-16.77,41.68c-0.5,10.7,0.37,18.41,2.99,23.26
			c6.08,11.82,46.33,16.8,60.99,12.94l0.12,0.62l-0.5,0.13c0.75,5.47,1.74,9.58,2.61,12.94l-18.26,29.61
			c-8.45-0.99-16.4-2.61-23.85-4.85c-14.53-4.11-30.06-10.45-43.97-2.74c-0.75,0.37-1.37,0.75-1.98,1.12l0,0l0,0
			c0-0.13,0-0.25-0.13-0.37l0,0l0,0l0,0V292l0,0l0,0l0,0c0-0.13,0-0.25,0-0.37l0,0v-0.13l0,0l0,0l0,0l0,0c0-0.13,0-0.37,0-0.5l0,0
			l0,0l0,0l0,0l0,0l0,0c-0.12-0.24-0.12-0.37-0.12-0.5l0,0l0,0v-0.12l0,0l0,0c0-0.13,0-0.25,0-0.37l0,0l0,0l0,0v-0.13l0,0l0,0l0,0
			l0,0c-0.12-0.13-0.12-0.25-0.12-0.5l0,0l0,0l0,0l0,0c0-0.13,0-0.37,0-0.5l0,0l0,0l0,0l0,0v-0.12l0,0l0,0l0,0
			c-0.12-0.13-0.12-0.25-0.12-0.37l0,0l0,0l0,0v-0.12l0,0l0,0c0-0.13,0-0.25,0-0.5l0,0l0,0l0,0c-0.13-0.13-0.13-0.25-0.13-0.5l0,0
			l0,0l0,0l0,0v-0.13l0,0c0-0.12,0-0.25,0-0.37l0,0l0,0l0,0v-0.12l0,0l0,0c-0.12-0.13-0.12-0.25-0.12-0.37l0,0l0,0v-0.12l0,0l0,0
			l0,0c0-0.13,0-0.25-0.12-0.5l0,0l0,0l0,0l0,0v-0.37l0,0l0,0c-0.5-4.6-1.24-9.46-2.24-14.06c-0.62-2.99-1.49-5.97-2.49-8.71
			c-0.62-1.74-1.12-3.36-1.73-4.85l0,0l0,0l0,0c-0.13-0.13-0.13-0.25-0.13-0.25l0,0l0,0l0,0l0,0l0,0c-0.12-0.12-0.12-0.25-0.12-0.25
			l0,0l0,0l0,0l0,0c0-0.13-0.12-0.25-0.12-0.25v-0.12l0,0l0,0l0,0l0,0c0,0-0.13-0.13-0.13-0.25l0,0l0,0l0,0l0,0l0,0l0,0
			c0,0-0.12-0.12-0.12-0.25l0,0l0,0l0,0l0,0l0,0c0,0,0-0.13-0.12-0.13v-0.12l0,0l0,0l0,0l0,0l0,0l0,0l0,0l0,0c0,0,0-0.12-0.12-0.25
			l0,0l0,0l0,0l0,0l0,0l0,0l0,0l0,0c0,0,0-0.13-0.13-0.25l0,0l0,0l0,0l0,0l0,0c0,0,0-0.13-0.12-0.25l0,0l0,0l0,0l0,0l0,0l0,0l0,0
			c0,0,0-0.12,0-0.25l0,0h-0.12l0,0l0,0l0,0l0,0c0,0,0-0.13,0-0.25l0,0l0,0h-0.12l0,0l0,0l0,0c0,0,0-0.12,0-0.25l0,0l0,0h-0.13l0,0
			l0,0l0,0v-0.13l0,0l0,0v-0.12l0,0l0,0l0,0c-0.12,0-0.12-0.13-0.12-0.13l0,0l0,0l0,0v-0.13l0,0l0,0l0,0
			c-0.12,0-0.12-0.12-0.12-0.12l0,0l0,0v-0.13l0,0l0,0l0,0c-0.13,0-0.13-0.13-0.13-0.13l0,0l0,0l0,0l0,0l0,0l0,0l0,0
			c-0.12-0.12-0.12-0.12-0.12-0.24l0,0l0,0l0,0l0,0l0,0l0,0l0,0c-0.12-0.13-0.12-0.13-0.12-0.25l0,0l0,0l0,0l0,0l0,0l0,0
			c-0.12-0.12-0.12-0.12-0.12-0.25l0,0l0,0l0,0l0,0l0,0l0,0l0,0c-0.13,0-0.13-0.13-0.13-0.13l0,0l0,0l0,0l0,0l0,0l0,0v-0.12l0,0l0,0
			l0,0c-0.12,0-0.12-0.12-0.12-0.12l0,0l0,0v-0.13l0,0c0.25-3.73,0.87-6.35,1.86-7.59c0.37-38.07,3.23-61.96,8.57-71.66
			c2.99-1.61,6.09-2.86,9.32-3.73L421.97,169.21z M423.97,244.1c-0.5,0.13-0.99,0.25-1.37,0.37c-3.23,1-5.46,0.87-6.83-0.25
			c-0.25-0.37-0.49-0.87-0.75-1.24c-3.11-6.97-3.84-14.56-1.98-22.77c0.24-1.87,0.74-3.49,1.49-4.97c3.11-6.6,8.94-7.84,11.05,0.37
			c0.37,1.62,0.75,3.49,0.87,5.72C426.82,233.52,425.95,241.12,423.97,244.1L423.97,244.1z"/>
	</g>
	<g>
		<path class="st0" d="M312.42,425.75l29.19,47.4l0,0l22.24,36.08l5.72-9.33l133.53-216.48c1.5,2.86,2.86,5.47,4.23,7.96
			c1.86,3.49,3.98,6.84,6.2,9.96L363.84,543.81L247.08,354.46c3.97-5.47,7.57-11.45,10.43-17.54L312.42,425.75z"/>
	</g>
	<g>
		<path class="st0" d="M308.57,112.1h89.44c1.61,9.7,2.24,12.07-3.6,18.16h-78.88c-1.37-1.99-2.48-4.23-3.6-6.84
			C310.31,119.94,309.44,115.83,308.57,112.1L308.57,112.1z"/>
	</g>
	<g>
		<path class="st1" d="M97.52,112.1h88.44c2.11,3.11,5.09,5.85,8.7,7.96c0.62,3.61,1.61,6.97,2.98,10.2h-67.58l81.37,131.75
			c-0.87,4.98-1.37,10.2-1.49,15.55c-2.24,2.11-4.23,4.48-6.09,7.09l-28.2-45.9c-1.49-12.19-7.95-23.27-18.26-30.36
			c-0.25-0.25-0.63-0.5-0.87-0.62L97.52,112.1z"/>
	</g>
</g>
<g>
	<g>
		<path class="st2" d="M45.16,641.3c-6.53-6.22-9.8-14.54-9.8-24.97c0-2.74,0.1-4.79,0.32-6.16l3.95-32.4
			c0.95-8.01,3.5-15.04,7.67-21.1c4.16-6.06,9.56-10.77,16.2-14.15c6.64-3.37,14.01-5.06,22.13-5.06c7.48,0,14.01,1.4,19.6,4.19
			c5.58,2.79,9.88,6.61,12.88,11.46c3,4.85,4.5,10.27,4.5,16.28c0,0.95-0.11,2.48-0.32,4.58l-0.16,0.79
			c-0.11,0.53-0.34,0.98-0.71,1.34c-0.37,0.37-0.82,0.55-1.34,0.55H98.26c-0.53,0-0.95-0.18-1.26-0.55
			c-0.32-0.37-0.42-0.81-0.32-1.34c0.1-0.42,0.16-1.05,0.16-1.9c0-3.69-1.21-6.77-3.64-9.25c-2.43-2.47-5.85-3.71-10.27-3.71
			c-4.64,0-8.59,1.58-11.85,4.74c-3.27,3.16-5.22,7.27-5.85,12.33l-4.27,33.98c-0.11,0.53-0.16,1.37-0.16,2.53
			c0,4.32,1.4,7.82,4.19,10.51c2.79,2.69,6.35,4.03,10.67,4.03c4.53,0,8.32-1.24,11.38-3.71c3.05-2.47,4.85-5.93,5.37-10.35
			l0.47-4.43c0.21-0.53,0-0.79-0.63-0.79H76.93c-0.53,0-0.95-0.18-1.26-0.55c-0.32-0.37-0.42-0.81-0.32-1.34l2.05-17.39
			c0.1-0.53,0.34-0.97,0.71-1.34c0.37-0.37,0.81-0.55,1.34-0.55h39.36c0.53,0,0.95,0.19,1.26,0.55c0.32,0.37,0.42,0.82,0.32,1.34
			l-2.69,21.5c-0.95,7.9-3.48,14.86-7.59,20.86c-4.11,6.01-9.48,10.64-16.12,13.91c-6.64,3.27-14.07,4.9-22.29,4.9
			C60.54,650.63,51.69,647.52,45.16,641.3z"/>
		<path class="st2" d="M149.95,648.49c-0.32-0.37-0.42-0.82-0.32-1.34l4.58-37.46c0.21-0.32,0.21-0.63,0-0.95l-23.08-67.81
			c-0.11-0.21-0.16-0.47-0.16-0.79c0-0.95,0.58-1.42,1.74-1.42h23.71c0.95,0,1.58,0.47,1.9,1.42l11.85,39.99
			c0.21,0.63,0.53,0.63,0.95,0l21.81-39.99c0.42-0.95,1.16-1.42,2.21-1.42h23.87c0.63,0,1.08,0.19,1.34,0.55
			c0.26,0.37,0.18,0.92-0.24,1.66l-40.3,67.81l-0.32,0.95l-4.58,37.46c-0.11,0.53-0.34,0.98-0.71,1.34
			c-0.37,0.37-0.82,0.55-1.34,0.55h-21.65C150.68,649.05,150.26,648.86,149.95,648.49z"/>
		<path class="st2" d="M302.95,538.72h21.65c0.53,0,0.95,0.19,1.26,0.55c0.32,0.37,0.42,0.82,0.32,1.34l-13.12,106.85
			c-0.11,0.53-0.34,0.98-0.71,1.34c-0.37,0.37-0.82,0.55-1.34,0.55h-21.81c-0.53,0-0.95-0.18-1.26-0.55
			c-0.32-0.37-0.42-0.81-0.32-1.34l7.74-63.54c0.1-0.42,0.05-0.63-0.16-0.63c-0.21,0-0.42,0.16-0.63,0.47l-15.96,21.81
			c-0.42,0.84-1.16,1.26-2.21,1.26h-10.91c-0.95,0-1.63-0.42-2.05-1.26l-10.59-21.97c-0.11-0.32-0.26-0.47-0.47-0.47
			c-0.21,0-0.37,0.21-0.47,0.63l-7.74,63.7c-0.11,0.53-0.34,0.98-0.71,1.34c-0.37,0.37-0.82,0.55-1.34,0.55h-21.81
			c-0.53,0-0.95-0.18-1.26-0.55c-0.32-0.37-0.42-0.81-0.32-1.34l13.12-106.85c0-0.53,0.21-0.97,0.63-1.34
			c0.42-0.37,0.89-0.55,1.42-0.55h21.5c1.05,0,1.74,0.42,2.05,1.26l17.07,34.46c0.32,0.63,0.63,0.63,0.95,0l25.29-34.46
			C301.15,539.14,301.89,538.72,302.95,538.72z"/>
	</g>
	<g>
		<path class="st3" d="M41.15,641.3c-6.53-6.22-9.8-14.54-9.8-24.97c0-2.74,0.1-4.79,0.32-6.16l3.95-32.4
			c0.95-8.01,3.5-15.04,7.67-21.1c4.16-6.06,9.56-10.77,16.2-14.15c6.64-3.37,14.01-5.06,22.13-5.06c7.48,0,14.01,1.4,19.6,4.19
			c5.58,2.79,9.88,6.61,12.88,11.46c3,4.85,4.5,10.27,4.5,16.28c0,0.95-0.11,2.48-0.32,4.58l-0.16,0.79
			c-0.11,0.53-0.34,0.98-0.71,1.34c-0.37,0.37-0.82,0.55-1.34,0.55H94.25c-0.53,0-0.95-0.18-1.26-0.55
			c-0.32-0.37-0.42-0.82-0.32-1.34c0.1-0.42,0.16-1.05,0.16-1.9c0-3.69-1.21-6.77-3.64-9.25c-2.43-2.47-5.85-3.71-10.27-3.71
			c-4.64,0-8.59,1.58-11.85,4.74c-3.27,3.16-5.22,7.27-5.85,12.33l-4.27,33.98c-0.11,0.53-0.16,1.37-0.16,2.53
			c0,4.32,1.4,7.82,4.19,10.51c2.79,2.69,6.35,4.03,10.67,4.03c4.53,0,8.32-1.24,11.38-3.71c3.05-2.47,4.85-5.93,5.37-10.35
			l0.47-4.43c0.21-0.53,0-0.79-0.63-0.79H72.92c-0.53,0-0.95-0.18-1.26-0.55c-0.32-0.37-0.42-0.82-0.32-1.34l2.05-17.39
			c0.1-0.53,0.34-0.97,0.71-1.34c0.37-0.37,0.81-0.55,1.34-0.55h39.36c0.53,0,0.95,0.19,1.26,0.55c0.32,0.37,0.42,0.82,0.32,1.34
			l-2.69,21.5c-0.95,7.9-3.48,14.86-7.59,20.86s-9.48,10.64-16.12,13.91c-6.64,3.27-14.07,4.9-22.29,4.9
			C56.53,650.63,47.68,647.52,41.15,641.3z"/>
		<path class="st3" d="M145.94,648.49c-0.32-0.37-0.42-0.81-0.32-1.34l4.58-37.46c0.21-0.32,0.21-0.63,0-0.95l-23.08-67.81
			c-0.11-0.21-0.16-0.47-0.16-0.79c0-0.95,0.58-1.42,1.74-1.42h23.71c0.95,0,1.58,0.47,1.9,1.42l11.85,39.99
			c0.21,0.63,0.53,0.63,0.95,0l21.81-39.99c0.42-0.95,1.16-1.42,2.21-1.42h23.87c0.63,0,1.08,0.19,1.34,0.55
			c0.26,0.37,0.18,0.92-0.24,1.66l-40.3,67.81l-0.32,0.95l-4.58,37.46c-0.11,0.53-0.34,0.98-0.71,1.34
			c-0.37,0.37-0.82,0.55-1.34,0.55H147.2C146.67,649.05,146.25,648.86,145.94,648.49z"/>
		<path class="st3" d="M298.94,538.72h21.65c0.53,0,0.95,0.19,1.26,0.55c0.32,0.37,0.42,0.82,0.32,1.34l-13.12,106.85
			c-0.11,0.53-0.34,0.98-0.71,1.34c-0.37,0.37-0.82,0.55-1.34,0.55h-21.81c-0.53,0-0.95-0.18-1.26-0.55
			c-0.32-0.37-0.42-0.81-0.32-1.34l7.74-63.54c0.1-0.42,0.05-0.63-0.16-0.63c-0.21,0-0.42,0.16-0.63,0.47l-15.96,21.81
			c-0.42,0.84-1.16,1.26-2.21,1.26h-10.91c-0.95,0-1.63-0.42-2.05-1.26l-10.59-21.97c-0.11-0.32-0.26-0.47-0.47-0.47
			c-0.21,0-0.37,0.21-0.47,0.63l-7.74,63.7c-0.11,0.53-0.34,0.98-0.71,1.34c-0.37,0.37-0.82,0.55-1.34,0.55h-21.81
			c-0.53,0-0.95-0.18-1.26-0.55c-0.32-0.37-0.42-0.81-0.32-1.34l13.12-106.85c0-0.53,0.21-0.97,0.63-1.34
			c0.42-0.37,0.89-0.55,1.42-0.55h21.5c1.05,0,1.74,0.42,2.05,1.26l17.07,34.46c0.32,0.63,0.63,0.63,0.95,0l25.29-34.46
			C297.14,539.15,297.88,538.72,298.94,538.72z"/>
	</g>
	<g>
		<path class="st3" d="M365.08,641.46c-6.53-6.11-9.8-14.33-9.8-24.66c0-2.53,0.1-4.48,0.32-5.85l4.27-34.14
			c0.95-7.8,3.48-14.67,7.59-20.63c4.11-5.95,9.48-10.56,16.12-13.83c6.64-3.26,14.01-4.9,22.13-4.9c11.38,0,20.36,2.87,26.95,8.61
			c6.58,5.74,9.88,13.51,9.88,23.31c0,1.05-0.11,2.85-0.32,5.37c0,0.42-0.21,0.82-0.63,1.19c-0.42,0.37-0.9,0.55-1.42,0.55
			l-21.97,1.42c-1.16,0-1.69-0.58-1.58-1.74c0.1-0.63,0.16-1.53,0.16-2.69c0-4.21-1.24-7.53-3.71-9.96
			c-2.48-2.42-5.82-3.64-10.04-3.64c-4.64,0-8.59,1.5-11.85,4.5c-3.27,3-5.22,6.93-5.85,11.78l-4.43,35.88
			c-0.11,0.53-0.16,1.32-0.16,2.37c0,4.22,1.26,7.56,3.79,10.04c2.53,2.48,5.9,3.71,10.12,3.71c4.74,0,8.72-1.47,11.93-4.43
			c3.21-2.95,5.08-6.85,5.61-11.7c0.21-1.16,0.89-1.74,2.05-1.74l21.65,1.11c1.16,0,1.74,0.53,1.74,1.58
			c-0.95,7.48-3.48,14.07-7.59,19.76c-4.11,5.69-9.46,10.09-16.04,13.2c-6.59,3.11-13.99,4.66-22.21,4.66
			C380.52,650.63,371.62,647.57,365.08,641.46z"/>
		<path class="st3" d="M446.48,648.81c-0.32-0.37-0.42-0.81-0.32-1.34l13.12-106.85c0-0.53,0.21-0.97,0.63-1.34
			c0.42-0.37,0.89-0.55,1.42-0.55h21.65c1.16,0,1.74,0.63,1.74,1.9l-10.59,85.51c0,0.53,0.21,0.79,0.63,0.79h49
			c0.53,0,0.95,0.19,1.26,0.55c0.32,0.37,0.42,0.82,0.32,1.34l-2.21,18.65c-0.11,0.53-0.37,0.98-0.79,1.34
			c-0.42,0.37-0.9,0.55-1.42,0.55h-73.18C447.22,649.36,446.8,649.18,446.48,648.81z"/>
		<path class="st3" d="M547.24,641.62c-6.59-6.01-9.88-14.07-9.88-24.18c0-1.26,0.1-3.16,0.32-5.69l8.85-71.13
			c0.1-0.53,0.34-0.97,0.71-1.34c0.37-0.37,0.82-0.55,1.34-0.55h21.81c0.53,0,0.95,0.19,1.26,0.55c0.32,0.37,0.42,0.82,0.32,1.34
			l-8.85,71.13c-0.11,0.53-0.16,1.37-0.16,2.53c0,4.22,1.24,7.59,3.71,10.12c2.47,2.53,5.82,3.79,10.04,3.79
			c4.53,0,8.4-1.5,11.62-4.5c3.21-3,5.08-6.98,5.61-11.93l8.85-71.13c0.1-0.53,0.34-0.97,0.71-1.34c0.37-0.37,0.81-0.55,1.34-0.55
			h21.81c0.53,0,0.95,0.19,1.26,0.55c0.32,0.37,0.42,0.82,0.32,1.34l-8.85,71.13c-0.95,7.69-3.48,14.49-7.59,20.39
			c-4.11,5.9-9.43,10.46-15.96,13.67c-6.53,3.22-13.86,4.82-21.97,4.82C562.7,650.63,553.83,647.62,547.24,641.62z"/>
		<path class="st3" d="M703.16,592.78c7.48,4.32,11.22,11.12,11.22,20.39c0,0.95-0.11,2.58-0.32,4.9
			c-1.37,10.54-5.9,18.39-13.59,23.55c-7.69,5.16-17.23,7.74-28.61,7.74h-40.78c-0.53,0-0.95-0.18-1.26-0.55
			c-0.32-0.37-0.42-0.81-0.32-1.34l13.12-106.85c0-0.53,0.21-0.97,0.63-1.34c0.42-0.37,0.89-0.55,1.42-0.55h39.51
			c11.27,0,19.84,2,25.68,6.01c5.85,4.01,8.77,10.43,8.77,19.28c0,1.16-0.11,3-0.32,5.53c-1.37,10.43-6.38,17.86-15.02,22.29
			C702.69,592.15,702.63,592.46,703.16,592.78z M685.22,623.28c2.58-2.32,3.87-5.53,3.87-9.64c0-3.05-1-5.4-3-7.03
			c-2-1.63-4.9-2.45-8.69-2.45h-16.44c-0.53,0-0.79,0.26-0.79,0.79l-2.69,21.02c0,0.53,0.26,0.79,0.79,0.79h16.28
			C679.08,626.76,682.64,625.6,685.22,623.28z M665.39,561.96l-2.37,19.92c-0.21,0.53,0,0.79,0.63,0.79h15.17
			c4.21,0,7.53-0.92,9.96-2.77c2.42-1.84,3.9-4.45,4.43-7.82c0.42-3.48-0.37-6.16-2.37-8.06c-2-1.9-5.11-2.84-9.33-2.84h-15.17
			C665.7,561.17,665.39,561.43,665.39,561.96z"/>
	</g>
	<g>
		<path class="st2" d="M361.76,641.46c-6.53-6.11-9.8-14.33-9.8-24.66c0-2.53,0.1-4.48,0.32-5.85l4.27-34.14
			c0.95-7.8,3.48-14.67,7.59-20.63c4.11-5.95,9.48-10.56,16.12-13.83c6.64-3.26,14.01-4.9,22.13-4.9c11.38,0,20.36,2.87,26.95,8.61
			c6.58,5.74,9.88,13.51,9.88,23.31c0,1.05-0.11,2.85-0.32,5.37c0,0.42-0.21,0.82-0.63,1.19c-0.42,0.37-0.9,0.55-1.42,0.55
			l-21.97,1.42c-1.16,0-1.69-0.58-1.58-1.74c0.1-0.63,0.16-1.53,0.16-2.69c0-4.21-1.24-7.53-3.71-9.96
			c-2.48-2.42-5.82-3.64-10.04-3.64c-4.64,0-8.59,1.5-11.85,4.5c-3.27,3-5.22,6.93-5.85,11.78l-4.43,35.88
			c-0.11,0.53-0.16,1.32-0.16,2.37c0,4.22,1.26,7.56,3.79,10.04c2.53,2.48,5.9,3.71,10.12,3.71c4.74,0,8.72-1.47,11.93-4.43
			c3.21-2.95,5.08-6.85,5.61-11.7c0.21-1.16,0.89-1.74,2.05-1.74l21.65,1.11c1.16,0,1.74,0.53,1.74,1.58
			c-0.95,7.48-3.48,14.07-7.59,19.76c-4.11,5.69-9.46,10.09-16.04,13.2c-6.59,3.11-13.99,4.66-22.21,4.66
			C377.2,650.63,368.3,647.57,361.76,641.46z"/>
		<path class="st2" d="M443.16,648.81c-0.32-0.37-0.42-0.81-0.32-1.34l13.12-106.85c0-0.53,0.21-0.97,0.63-1.34
			c0.42-0.37,0.89-0.55,1.42-0.55h21.65c1.16,0,1.74,0.63,1.74,1.9l-10.59,85.51c0,0.53,0.21,0.79,0.63,0.79h49
			c0.53,0,0.95,0.19,1.26,0.55c0.32,0.37,0.42,0.82,0.32,1.34l-2.21,18.65c-0.11,0.53-0.37,0.98-0.79,1.34
			c-0.42,0.37-0.9,0.55-1.42,0.55h-73.18C443.9,649.36,443.48,649.18,443.16,648.81z"/>
		<path class="st2" d="M543.92,641.62c-6.59-6.01-9.88-14.07-9.88-24.18c0-1.26,0.1-3.16,0.32-5.69l8.85-71.13
			c0.1-0.53,0.34-0.97,0.71-1.34c0.37-0.37,0.81-0.55,1.34-0.55h21.81c0.53,0,0.95,0.19,1.26,0.55c0.32,0.37,0.42,0.82,0.32,1.34
			l-8.85,71.13c-0.11,0.53-0.16,1.37-0.16,2.53c0,4.22,1.24,7.59,3.71,10.12c2.47,2.53,5.82,3.79,10.04,3.79
			c4.53,0,8.4-1.5,11.62-4.5c3.21-3,5.08-6.98,5.61-11.93l8.85-71.13c0.1-0.53,0.34-0.97,0.71-1.34c0.37-0.37,0.81-0.55,1.34-0.55
			h21.81c0.53,0,0.95,0.19,1.26,0.55c0.32,0.37,0.42,0.82,0.32,1.34l-8.85,71.13c-0.95,7.69-3.48,14.49-7.59,20.39
			c-4.11,5.9-9.43,10.46-15.96,13.67c-6.53,3.22-13.86,4.82-21.97,4.82C559.38,650.63,550.51,647.62,543.92,641.62z"/>
		<path class="st2" d="M699.84,592.78c7.48,4.32,11.22,11.12,11.22,20.39c0,0.95-0.11,2.58-0.32,4.9
			c-1.37,10.54-5.9,18.39-13.59,23.55c-7.69,5.16-17.23,7.74-28.61,7.74h-40.78c-0.53,0-0.95-0.18-1.26-0.55
			c-0.32-0.37-0.42-0.81-0.32-1.34l13.12-106.85c0-0.53,0.21-0.97,0.63-1.34c0.42-0.37,0.89-0.55,1.42-0.55h39.51
			c11.27,0,19.84,2,25.68,6.01c5.85,4.01,8.77,10.43,8.77,19.28c0,1.16-0.11,3-0.32,5.53c-1.37,10.43-6.38,17.86-15.02,22.29
			C699.37,592.15,699.31,592.46,699.84,592.78z M681.9,623.28c2.58-2.32,3.87-5.53,3.87-9.64c0-3.05-1-5.4-3-7.03
			c-2-1.63-4.9-2.45-8.69-2.45h-16.44c-0.53,0-0.79,0.26-0.79,0.79l-2.69,21.02c0,0.53,0.26,0.79,0.79,0.79h16.28
			C675.76,626.76,679.32,625.6,681.9,623.28z M662.07,561.96l-2.37,19.92c-0.21,0.53,0,0.79,0.63,0.79h15.17
			c4.21,0,7.53-0.92,9.96-2.77c2.42-1.84,3.9-4.45,4.43-7.82c0.42-3.48-0.37-6.16-2.37-8.06c-2-1.9-5.11-2.84-9.33-2.84h-15.17
			C662.38,561.17,662.07,561.43,662.07,561.96z"/>
	</g>
	<g>
		<path class="st4" d="M50.87,695.42c0.14,0,0.28,0.03,0.42,0.08c0.14,0.05,0.27,0.14,0.4,0.27l2.33,2.45
			c-1.02,1.33-2.3,2.34-3.83,3.02c-1.54,0.68-3.35,1.02-5.45,1.02c-1.92,0-3.65-0.33-5.17-0.98c-1.52-0.66-2.82-1.56-3.88-2.71
			c-1.06-1.15-1.88-2.52-2.44-4.1c-0.57-1.58-0.85-3.3-0.85-5.16c0-1.89,0.31-3.62,0.92-5.21c0.61-1.58,1.48-2.95,2.59-4.09
			c1.11-1.15,2.45-2.04,4-2.68c1.55-0.64,3.26-0.96,5.13-0.96c0.95,0,1.85,0.08,2.69,0.25c0.84,0.17,1.63,0.4,2.36,0.7
			c0.73,0.3,1.4,0.65,2.02,1.07c0.61,0.42,1.16,0.87,1.63,1.36l-1.98,2.66c-0.13,0.16-0.28,0.31-0.45,0.44
			c-0.17,0.13-0.42,0.2-0.73,0.2c-0.21,0-0.41-0.05-0.59-0.14c-0.19-0.09-0.38-0.21-0.59-0.34c-0.21-0.13-0.44-0.28-0.69-0.43
			c-0.25-0.16-0.54-0.3-0.89-0.43c-0.34-0.13-0.74-0.25-1.2-0.34c-0.46-0.09-0.99-0.14-1.61-0.14c-0.97,0-1.86,0.18-2.67,0.54
			c-0.81,0.36-1.5,0.88-2.09,1.57c-0.59,0.69-1.04,1.54-1.36,2.54c-0.32,1-0.48,2.15-0.48,3.43c0,1.3,0.18,2.45,0.53,3.46
			c0.35,1.01,0.83,1.86,1.44,2.55c0.61,0.69,1.32,1.21,2.13,1.57s1.68,0.54,2.61,0.54c0.53,0,1.02-0.03,1.46-0.08
			c0.44-0.05,0.85-0.14,1.23-0.26c0.38-0.12,0.74-0.28,1.08-0.49c0.34-0.2,0.68-0.46,1.03-0.77c0.14-0.12,0.29-0.21,0.45-0.29
			C50.53,695.45,50.7,695.42,50.87,695.42z"/>
		<path class="st4" d="M84.34,689.3c0,1.83-0.32,3.54-0.95,5.11c-0.63,1.58-1.52,2.95-2.67,4.11c-1.15,1.17-2.53,2.08-4.15,2.74
			c-1.62,0.66-3.41,0.99-5.38,0.99c-1.97,0-3.77-0.33-5.39-0.99c-1.62-0.66-3.01-1.57-4.16-2.74c-1.15-1.16-2.05-2.54-2.68-4.11
			c-0.63-1.58-0.95-3.28-0.95-5.11c0-1.83,0.32-3.53,0.95-5.11c0.63-1.58,1.52-2.94,2.68-4.1c1.15-1.16,2.54-2.07,4.16-2.73
			c1.62-0.66,3.42-0.99,5.39-0.99c1.97,0,3.76,0.33,5.38,1c1.62,0.67,3,1.58,4.15,2.74c1.15,1.16,2.04,2.53,2.67,4.1
			C84.02,685.78,84.34,687.48,84.34,689.3z M78.32,689.3c0-1.25-0.16-2.38-0.49-3.38c-0.32-1-0.79-1.85-1.4-2.55
			c-0.61-0.7-1.35-1.23-2.23-1.6c-0.88-0.37-1.88-0.56-3.01-0.56c-1.14,0-2.15,0.19-3.03,0.56c-0.89,0.37-1.63,0.9-2.24,1.6
			c-0.61,0.7-1.08,1.54-1.4,2.55c-0.32,1-0.49,2.13-0.49,3.38c0,1.26,0.16,2.4,0.49,3.4c0.32,1,0.79,1.85,1.4,2.55
			c0.61,0.7,1.36,1.23,2.24,1.59c0.89,0.36,1.9,0.55,3.03,0.55c1.12,0,2.13-0.18,3.01-0.55c0.88-0.37,1.63-0.9,2.23-1.59
			c0.61-0.7,1.07-1.54,1.4-2.55C78.16,691.69,78.32,690.56,78.32,689.3z"/>
		<path class="st4" d="M119.75,676.64v25.33h-5.18V687.4c0-0.34,0.01-0.7,0.03-1.1c0.02-0.39,0.05-0.79,0.1-1.2l-6.73,13.02
			c-0.21,0.41-0.49,0.71-0.84,0.92c-0.35,0.21-0.76,0.31-1.21,0.31h-0.8c-0.45,0-0.86-0.1-1.21-0.31c-0.35-0.21-0.63-0.52-0.84-0.92
			l-6.73-13.06c0.03,0.42,0.06,0.83,0.09,1.23c0.02,0.4,0.03,0.77,0.03,1.1v14.57h-5.18v-25.33h4.49c0.25,0,0.48,0.01,0.67,0.02
			c0.19,0.01,0.36,0.05,0.51,0.1c0.15,0.06,0.29,0.15,0.41,0.27c0.12,0.12,0.24,0.29,0.36,0.51l6.52,12.85
			c0.23,0.44,0.45,0.9,0.67,1.37c0.21,0.48,0.42,0.96,0.62,1.46c0.2-0.51,0.4-1.01,0.62-1.5c0.21-0.49,0.44-0.95,0.69-1.39l6.5-12.8
			c0.12-0.22,0.23-0.39,0.36-0.51c0.12-0.12,0.26-0.21,0.41-0.27c0.15-0.06,0.32-0.09,0.51-0.1c0.19-0.01,0.41-0.02,0.67-0.02
			H119.75z"/>
		<path class="st4" d="M137.07,676.64c1.78,0,3.32,0.21,4.6,0.63c1.28,0.42,2.34,1.01,3.16,1.75c0.83,0.74,1.44,1.62,1.83,2.63
			c0.39,1.01,0.59,2.1,0.59,3.27c0,1.26-0.2,2.42-0.61,3.48c-0.41,1.06-1.03,1.96-1.86,2.71c-0.83,0.75-1.89,1.34-3.17,1.76
			c-1.28,0.42-2.8,0.63-4.55,0.63h-3.06v8.47h-5.88v-25.33H137.07z M137.07,689.07c1.53,0,2.63-0.36,3.3-1.1
			c0.67-0.73,1.01-1.75,1.01-3.06c0-0.58-0.09-1.11-0.26-1.58c-0.17-0.47-0.44-0.88-0.79-1.23c-0.35-0.34-0.8-0.61-1.34-0.79
			c-0.54-0.19-1.18-0.28-1.92-0.28h-3.06v8.03H137.07z"/>
		<path class="st4" d="M168.99,697.28v4.69h-15.27v-25.33h5.88v20.64H168.99z"/>
		<path class="st4" d="M181.37,681.16v5.91h7.96v4.35h-7.96v6.03h10.4v4.52h-16.31v-25.33h16.31v4.52H181.37z"/>
		<path class="st4" d="M220.59,701.97h-5.88c-0.38,0-0.69-0.09-0.93-0.28c-0.24-0.19-0.43-0.4-0.57-0.66l-5.08-8.87
			c-0.09,0.26-0.2,0.48-0.31,0.66l-4.73,8.21c-0.16,0.23-0.35,0.45-0.57,0.64c-0.22,0.2-0.5,0.3-0.85,0.3h-5.49l8.15-13.04
			l-7.84-12.29h5.88c0.38,0,0.66,0.05,0.84,0.15c0.18,0.1,0.34,0.26,0.48,0.5l5.04,8.54c0.06-0.15,0.12-0.3,0.2-0.43
			c0.08-0.14,0.16-0.28,0.25-0.43l4.42-7.58c0.16-0.25,0.33-0.44,0.51-0.56c0.18-0.12,0.4-0.17,0.67-0.17h5.63l-7.95,12.05
			L220.59,701.97z"/>
		<path class="st4" d="M232.24,681.16v5.91h7.96v4.35h-7.96v6.03h10.4v4.52h-16.31v-25.33h16.31v4.52H232.24z"/>
		<path class="st4" d="M275.24,681.78c-0.17,0.28-0.36,0.49-0.55,0.63c-0.19,0.14-0.44,0.21-0.74,0.21c-0.27,0-0.55-0.08-0.86-0.25
			c-0.31-0.17-0.65-0.36-1.04-0.57c-0.39-0.21-0.83-0.4-1.33-0.56c-0.5-0.17-1.07-0.25-1.7-0.25c-1.1,0-1.92,0.23-2.46,0.7
			c-0.54,0.47-0.81,1.1-0.81,1.9c0,0.51,0.16,0.93,0.49,1.27c0.32,0.34,0.75,0.63,1.28,0.87c0.53,0.24,1.13,0.47,1.81,0.67
			c0.68,0.2,1.37,0.43,2.08,0.68c0.71,0.25,1.4,0.54,2.08,0.88c0.68,0.34,1.28,0.77,1.81,1.29c0.53,0.52,0.95,1.16,1.28,1.9
			c0.32,0.75,0.49,1.65,0.49,2.7c0,1.17-0.2,2.27-0.61,3.29c-0.41,1.02-0.99,1.91-1.76,2.67c-0.77,0.76-1.72,1.36-2.85,1.79
			c-1.13,0.43-2.41,0.65-3.85,0.65c-0.79,0-1.59-0.08-2.41-0.24c-0.82-0.16-1.61-0.39-2.37-0.69c-0.76-0.3-1.48-0.65-2.16-1.05
			c-0.67-0.41-1.26-0.86-1.76-1.36l1.74-2.75c0.14-0.2,0.32-0.36,0.55-0.5c0.23-0.13,0.47-0.2,0.74-0.2c0.35,0,0.7,0.11,1.05,0.33
			c0.35,0.22,0.75,0.46,1.2,0.73c0.45,0.27,0.96,0.51,1.54,0.73c0.58,0.22,1.26,0.33,2.05,0.33c1.07,0,1.9-0.23,2.49-0.7
			c0.59-0.47,0.89-1.21,0.89-2.23c0-0.59-0.16-1.07-0.49-1.44c-0.32-0.37-0.75-0.68-1.28-0.92c-0.53-0.24-1.13-0.46-1.8-0.64
			c-0.67-0.19-1.36-0.39-2.07-0.62c-0.71-0.23-1.4-0.5-2.07-0.83s-1.27-0.77-1.8-1.3c-0.53-0.54-0.95-1.21-1.28-2.02
			c-0.32-0.81-0.49-1.8-0.49-2.98c0-0.95,0.19-1.88,0.57-2.78c0.38-0.9,0.94-1.71,1.69-2.42c0.74-0.71,1.65-1.27,2.73-1.7
			c1.08-0.42,2.31-0.63,3.7-0.63c0.78,0,1.53,0.06,2.27,0.18c0.74,0.12,1.43,0.3,2.09,0.54c0.66,0.24,1.28,0.52,1.85,0.85
			c0.57,0.33,1.09,0.7,1.54,1.12L275.24,681.78z"/>
		<path class="st4" d="M292.92,676.64c1.78,0,3.32,0.21,4.6,0.63c1.28,0.42,2.34,1.01,3.16,1.75c0.83,0.74,1.44,1.62,1.83,2.63
			c0.39,1.01,0.59,2.1,0.59,3.27c0,1.26-0.2,2.42-0.61,3.48c-0.41,1.06-1.03,1.96-1.86,2.71c-0.83,0.75-1.89,1.34-3.17,1.76
			c-1.28,0.42-2.8,0.63-4.55,0.63h-3.06v8.47h-5.88v-25.33H292.92z M292.92,689.07c1.53,0,2.63-0.36,3.3-1.1
			c0.67-0.73,1.01-1.75,1.01-3.06c0-0.58-0.09-1.11-0.26-1.58c-0.17-0.47-0.44-0.88-0.79-1.23c-0.35-0.34-0.8-0.61-1.34-0.79
			c-0.54-0.19-1.18-0.28-1.92-0.28h-3.06v8.03H292.92z"/>
		<path class="st4" d="M334.44,689.3c0,1.83-0.32,3.54-0.95,5.11c-0.63,1.58-1.52,2.95-2.67,4.11c-1.15,1.17-2.53,2.08-4.15,2.74
			c-1.62,0.66-3.41,0.99-5.38,0.99c-1.97,0-3.77-0.33-5.39-0.99c-1.62-0.66-3.01-1.57-4.16-2.74c-1.15-1.16-2.05-2.54-2.68-4.11
			c-0.63-1.58-0.95-3.28-0.95-5.11c0-1.83,0.32-3.53,0.95-5.11c0.63-1.58,1.52-2.94,2.68-4.1c1.15-1.16,2.54-2.07,4.16-2.73
			c1.62-0.66,3.42-0.99,5.39-0.99c1.97,0,3.76,0.33,5.38,1c1.62,0.67,3,1.58,4.15,2.74c1.15,1.16,2.04,2.53,2.67,4.1
			C334.12,685.78,334.44,687.48,334.44,689.3z M328.42,689.3c0-1.25-0.16-2.38-0.49-3.38c-0.32-1-0.79-1.85-1.4-2.55
			c-0.61-0.7-1.35-1.23-2.23-1.6c-0.88-0.37-1.88-0.56-3.01-0.56c-1.14,0-2.15,0.19-3.03,0.56c-0.89,0.37-1.63,0.9-2.24,1.6
			c-0.61,0.7-1.08,1.54-1.4,2.55c-0.32,1-0.49,2.13-0.49,3.38c0,1.26,0.16,2.4,0.49,3.4c0.32,1,0.79,1.85,1.4,2.55
			c0.61,0.7,1.36,1.23,2.24,1.59c0.89,0.36,1.9,0.55,3.03,0.55c1.12,0,2.13-0.18,3.01-0.55c0.88-0.37,1.63-0.9,2.23-1.59
			s1.07-1.54,1.4-2.55C328.26,691.69,328.42,690.56,328.42,689.3z"/>
		<path class="st4" d="M362.1,701.97h-5.32c-0.99,0-1.69-0.37-2.12-1.11l-4.21-7.35c-0.2-0.31-0.42-0.54-0.66-0.69
			s-0.59-0.22-1.04-0.22h-1.5v9.37h-5.88v-25.33h8.24c1.83,0,3.39,0.19,4.69,0.56c1.29,0.38,2.35,0.9,3.16,1.57
			c0.82,0.67,1.41,1.47,1.78,2.38c0.37,0.92,0.56,1.91,0.56,2.99c0,0.82-0.11,1.6-0.33,2.33c-0.22,0.73-0.54,1.41-0.97,2.03
			c-0.43,0.62-0.96,1.17-1.59,1.66c-0.63,0.49-1.36,0.89-2.18,1.2c0.38,0.2,0.74,0.44,1.08,0.74c0.34,0.3,0.64,0.65,0.9,1.05
			L362.1,701.97z M349.61,688.55c0.8,0,1.48-0.1,2.04-0.3c0.56-0.2,1.02-0.48,1.38-0.84c0.36-0.36,0.62-0.78,0.78-1.26
			c0.16-0.48,0.24-1,0.24-1.56c0-1.11-0.36-1.98-1.09-2.61c-0.72-0.63-1.85-0.94-3.36-0.94h-2.36v7.51H349.61z"/>
		<path class="st4" d="M385.41,681.3h-7.13v20.67h-5.88V681.3h-7.13v-4.66h20.13V681.3z"/>
		<path class="st4" d="M397.77,701.97h-5.91v-25.33h5.91V701.97z"/>
		<path class="st4" d="M412.06,681.16v6.42h8.66v4.54h-8.66v9.86h-5.91v-25.33h16.31v4.52H412.06z"/>
		<path class="st4" d="M457.11,681.3h-7.13v20.67h-5.88V681.3h-7.13v-4.66h20.13V681.3z"/>
		<path class="st4" d="M487.83,689.3c0,1.83-0.32,3.54-0.95,5.11c-0.63,1.58-1.52,2.95-2.67,4.11c-1.15,1.17-2.53,2.08-4.15,2.74
			c-1.62,0.66-3.41,0.99-5.38,0.99c-1.97,0-3.77-0.33-5.39-0.99c-1.62-0.66-3.01-1.57-4.16-2.74c-1.15-1.16-2.05-2.54-2.68-4.11
			c-0.63-1.58-0.95-3.28-0.95-5.11c0-1.83,0.32-3.53,0.95-5.11c0.63-1.58,1.52-2.94,2.68-4.1s2.54-2.07,4.16-2.73
			c1.62-0.66,3.42-0.99,5.39-0.99c1.97,0,3.76,0.33,5.38,1c1.62,0.67,3,1.58,4.15,2.74c1.15,1.16,2.04,2.53,2.67,4.1
			C487.52,685.78,487.83,687.48,487.83,689.3z M481.82,689.3c0-1.25-0.16-2.38-0.49-3.38c-0.32-1-0.79-1.85-1.4-2.55
			c-0.61-0.7-1.35-1.23-2.23-1.6c-0.88-0.37-1.88-0.56-3.01-0.56c-1.14,0-2.15,0.19-3.03,0.56c-0.89,0.37-1.63,0.9-2.24,1.6
			c-0.61,0.7-1.08,1.54-1.4,2.55c-0.32,1-0.49,2.13-0.49,3.38c0,1.26,0.16,2.4,0.49,3.4c0.32,1,0.79,1.85,1.4,2.55
			c0.61,0.7,1.36,1.23,2.24,1.59c0.89,0.36,1.9,0.55,3.03,0.55c1.12,0,2.13-0.18,3.01-0.55c0.88-0.37,1.63-0.9,2.23-1.59
			c0.61-0.7,1.07-1.54,1.4-2.55C481.66,691.69,481.82,690.56,481.82,689.3z"/>
		<path class="st4" d="M505.34,697.33c0.79,0,1.49-0.13,2.11-0.39c0.62-0.26,1.14-0.63,1.57-1.12c0.43-0.49,0.76-1.08,0.98-1.78
			c0.23-0.7,0.34-1.5,0.34-2.39v-15h5.88v15c0,1.55-0.25,2.98-0.76,4.28c-0.5,1.3-1.23,2.42-2.16,3.36
			c-0.94,0.94-2.08,1.67-3.42,2.19c-1.34,0.52-2.86,0.78-4.54,0.78c-1.69,0-3.21-0.26-4.56-0.78c-1.34-0.52-2.49-1.25-3.42-2.19
			c-0.94-0.94-1.66-2.06-2.16-3.36c-0.5-1.3-0.75-2.72-0.75-4.28v-15h5.88v14.99c0,0.89,0.11,1.69,0.34,2.39
			c0.23,0.7,0.55,1.3,0.98,1.79c0.43,0.49,0.95,0.87,1.57,1.13C503.85,697.2,504.55,697.33,505.34,697.33z"/>
		<path class="st4" d="M545.02,701.97h-5.32c-0.99,0-1.69-0.37-2.12-1.11l-4.21-7.35c-0.2-0.31-0.42-0.54-0.66-0.69
			c-0.24-0.15-0.59-0.22-1.04-0.22h-1.49v9.37h-5.88v-25.33h8.24c1.83,0,3.39,0.19,4.69,0.56c1.29,0.38,2.35,0.9,3.16,1.57
			c0.82,0.67,1.41,1.47,1.78,2.38c0.37,0.92,0.56,1.91,0.56,2.99c0,0.82-0.11,1.6-0.33,2.33c-0.22,0.73-0.55,1.41-0.97,2.03
			c-0.43,0.62-0.96,1.17-1.59,1.66c-0.63,0.49-1.36,0.89-2.18,1.2c0.38,0.2,0.74,0.44,1.08,0.74c0.34,0.3,0.64,0.65,0.9,1.05
			L545.02,701.97z M532.53,688.55c0.8,0,1.48-0.1,2.04-0.3c0.56-0.2,1.02-0.48,1.38-0.84c0.36-0.36,0.62-0.78,0.78-1.26
			c0.16-0.48,0.24-1,0.24-1.56c0-1.11-0.36-1.98-1.09-2.61c-0.72-0.63-1.85-0.94-3.36-0.94h-2.36v7.51H532.53z"/>
		<path class="st4" d="M573.36,701.97h-4.56c-0.51,0-0.92-0.12-1.23-0.36c-0.31-0.24-0.55-0.54-0.71-0.91l-1.5-4.42h-9.63
			l-1.49,4.42c-0.13,0.32-0.36,0.62-0.69,0.88c-0.33,0.26-0.74,0.39-1.23,0.39h-4.59l9.81-25.33h6.02L573.36,701.97z M564.02,692.29
			l-2.35-6.94c-0.17-0.44-0.36-0.96-0.56-1.56s-0.39-1.24-0.59-1.94c-0.17,0.71-0.36,1.36-0.56,1.96s-0.38,1.12-0.56,1.56l-2.33,6.9
			H564.02z"/>
		<path class="st4" d="M600.95,676.64v25.33h-3.06c-0.45,0-0.83-0.07-1.14-0.22c-0.31-0.15-0.61-0.4-0.91-0.76l-11.94-15.11
			c0.05,0.45,0.08,0.89,0.1,1.31c0.02,0.42,0.03,0.82,0.03,1.19v13.58h-5.18v-25.33h3.09c0.25,0,0.47,0.01,0.64,0.03
			c0.17,0.02,0.33,0.07,0.47,0.13c0.14,0.06,0.27,0.15,0.4,0.27c0.13,0.12,0.27,0.27,0.43,0.47l12.05,15.21
			c-0.06-0.49-0.1-0.96-0.12-1.42c-0.02-0.46-0.04-0.89-0.04-1.3v-13.4H600.95z"/>
		<path class="st4" d="M621.5,688.84h9.01v10.69c-1.3,0.95-2.68,1.64-4.15,2.07c-1.47,0.43-3,0.64-4.6,0.64
			c-2.09,0-3.98-0.33-5.69-0.98c-1.71-0.66-3.17-1.56-4.39-2.71s-2.16-2.52-2.82-4.1c-0.66-1.58-0.99-3.3-0.99-5.16
			c0-1.89,0.31-3.62,0.94-5.21c0.63-1.58,1.52-2.95,2.69-4.09c1.17-1.15,2.57-2.04,4.22-2.68c1.65-0.64,3.5-0.96,5.54-0.96
			c1.05,0,2.05,0.09,2.97,0.26c0.93,0.17,1.78,0.41,2.56,0.71c0.78,0.3,1.5,0.66,2.15,1.08c0.65,0.42,1.23,0.87,1.74,1.36l-1.7,2.59
			c-0.27,0.41-0.61,0.65-1.03,0.75c-0.42,0.09-0.88-0.01-1.37-0.31c-0.46-0.28-0.9-0.52-1.31-0.72c-0.41-0.2-0.83-0.37-1.26-0.5
			c-0.43-0.13-0.88-0.22-1.36-0.28s-1.01-0.09-1.6-0.09c-1.1,0-2.09,0.19-2.97,0.58c-0.88,0.39-1.63,0.94-2.25,1.64
			c-0.62,0.71-1.1,1.56-1.43,2.55c-0.34,0.99-0.5,2.09-0.5,3.31c0,1.34,0.19,2.54,0.56,3.58c0.37,1.04,0.9,1.92,1.57,2.64
			c0.68,0.72,1.49,1.27,2.43,1.64c0.94,0.38,1.99,0.56,3.14,0.56c0.71,0,1.35-0.07,1.92-0.21c0.57-0.14,1.13-0.32,1.68-0.56v-3.84
			h-2.5c-0.37,0-0.66-0.1-0.87-0.3c-0.21-0.2-0.31-0.45-0.31-0.75V688.84z"/>
		<path class="st4" d="M643.84,681.16v5.91h7.96v4.35h-7.96v6.03h10.4v4.52h-16.31v-25.33h16.31v4.52H643.84z"/>
		<path class="st4" d="M684.05,701.97h-4.56c-0.51,0-0.92-0.12-1.23-0.36c-0.31-0.24-0.55-0.54-0.71-0.91l-1.5-4.42h-9.63
			l-1.49,4.42c-0.13,0.32-0.36,0.62-0.69,0.88c-0.33,0.26-0.74,0.39-1.23,0.39h-4.59l9.81-25.33h6.02L684.05,701.97z M674.72,692.29
			l-2.35-6.94c-0.17-0.44-0.36-0.96-0.56-1.56c-0.2-0.6-0.39-1.24-0.59-1.94c-0.17,0.71-0.36,1.36-0.56,1.96
			c-0.2,0.6-0.38,1.12-0.56,1.56l-2.33,6.9H674.72z"/>
		<path class="st4" d="M699.44,697.33c0.79,0,1.49-0.13,2.11-0.39c0.62-0.26,1.14-0.63,1.57-1.12c0.43-0.49,0.76-1.08,0.98-1.78
			c0.23-0.7,0.34-1.5,0.34-2.39v-15h5.88v15c0,1.55-0.25,2.98-0.76,4.28c-0.5,1.3-1.23,2.42-2.16,3.36
			c-0.94,0.94-2.08,1.67-3.42,2.19c-1.34,0.52-2.86,0.78-4.54,0.78c-1.69,0-3.21-0.26-4.56-0.78c-1.34-0.52-2.49-1.25-3.43-2.19
			c-0.94-0.94-1.66-2.06-2.16-3.36c-0.5-1.3-0.75-2.72-0.75-4.28v-15h5.88v14.99c0,0.89,0.11,1.69,0.34,2.39
			c0.23,0.7,0.55,1.3,0.98,1.79c0.43,0.49,0.95,0.87,1.57,1.13C697.95,697.2,698.65,697.33,699.44,697.33z"/>
	</g>
</g>
</svg>
