<?xml version="1.0" encoding="utf-8"?>
<!-- Generator: Adobe Illustrator 26.0.2, SVG Export Plug-In . SVG Version: 6.00 Build 0)  -->
<svg version="1.1" id="Calque_1" xmlns="http://www.w3.org/2000/svg" xmlns:xlink="http://www.w3.org/1999/xlink" x="0px" y="0px"
	 viewBox="0 0 1500 1500" style="enable-background:new 0 0 1500 1500;" xml:space="preserve">
<style type="text/css">
	.st0{fill:#662D91;}
</style>
<g id="image_00000114056904262169195170000001712510247188263849_">
	
		<ellipse transform="matrix(0.5306 -0.8476 0.8476 0.5306 183.5339 1384.7839)" class="st0" cx="1342.02" cy="526.69" rx="125.43" ry="125.43"/>
	<path class="st0" d="M1248.96,979.46H92.19c-32.94,0-59.64,26.7-59.64,59.64c0,32.94,26.7,59.64,59.64,59.64h1156.77
		c32.94,0,59.64-26.7,59.64-59.64C1308.6,1006.17,1281.9,979.46,1248.96,979.46z"/>
	<path class="st0" d="M148.73,970.85c32.94,0,59.64-26.7,59.64-59.64v-33.28l225.2-47c2.51-0.52,4.98-1.21,7.4-2.05l223.82-77.83
		c1.58-0.18,3.17-0.38,4.76-0.66l255.17-44.53c-15.48,17.11-19.88,41.98-10.49,63.68L985.8,934.9c9.74,22.51,31.7,35.97,54.77,35.97
		c7.91,0,15.94-1.58,23.66-4.92c30.23-13.08,44.13-48.2,31.04-78.43l-53.49-123.58l136.93-109.7c2.72-1.9,5.31-3.98,7.74-6.2
		l1.38-1.11c12.54-10.05,19.94-24.13,21.84-38.9c2.13-9.53,2.47-19.63,0.69-29.85c-7.28-41.72-47-69.65-88.73-62.36l-478.46,83.5
		c-29.73,5.19-52.44,26.86-60.41,53.97l-177.34,61.67l-268.89,56.12c-27.65,5.77-47.46,30.14-47.46,58.38v81.76
		C89.09,944.15,115.79,970.85,148.73,970.85z"/>
</g>
</svg>
