<?xml version="1.0" encoding="utf-8"?>
<!-- Generator: Adobe Illustrator 26.0.2, SVG Export Plug-In . SVG Version: 6.00 Build 0)  -->
<svg version="1.1" id="Calque_1" xmlns="http://www.w3.org/2000/svg" xmlns:xlink="http://www.w3.org/1999/xlink" x="0px" y="0px"
	 viewBox="0 0 1500 1500" style="enable-background:new 0 0 1500 1500;" xml:space="preserve">
<style type="text/css">
	.st0{fill:#00FFFF;}
	.st1{fill:#662D91;}
</style>
<g>
	<g>
		<path class="st0" d="M656.98,1237.65c0,16.19-10.15,24.22-30.32,24.22H287.23c-20.23,0-33.34-8.03-39.41-24.22L56.88,758.78
			c-4.08-8.06-6.07-14.1-6.07-18.18c0-8.06,4.02-18.18,12.14-30.32l306.09-478.84c10.09-16.16,26.24-24.25,48.5-24.25h339.43
			c12.14,0,19.69,4.08,22.74,12.11c3.02,8.09,1.51,18.18-4.56,30.32L459.98,725.44c-4.08,8.09-5.07,14.16-3.05,18.18l197,475.82
			C655.92,1223.52,656.98,1229.59,656.98,1237.65z M1175.23,1234.6c0,8.09-3.05,14.68-9.09,19.69c-6.07,5.07-13.17,7.58-21.23,7.58
			H805.48c-20.23,0-33.34-9.09-39.41-27.27L575.13,758.78c-2.02-4.02-3.02-10.09-3.02-18.18c0-12.14,3.02-22.23,9.09-30.32
			l306.09-475.82c12.14-18.18,28.27-27.27,48.5-27.27h336.41c18.18,0,27.27,6.07,27.27,18.18c0,6.07-3.02,14.16-9.09,24.25
			L981.25,725.44c-6.07,6.07-7.1,12.11-3.02,18.18l193.95,475.82C1174.17,1223.52,1175.23,1228.53,1175.23,1234.6z"/>
	</g>
	<g>
		<path class="st1" d="M806.69,1330.22c0,16.19-10.15,24.22-30.32,24.22H436.94c-20.23,0-33.34-8.03-39.41-24.22L206.6,851.36
			c-4.08-8.06-6.07-14.1-6.07-18.18c0-8.06,4.02-18.18,12.14-30.32l306.09-478.84c10.09-16.16,26.24-24.25,48.5-24.25h339.43
			c12.14,0,19.69,4.08,22.74,12.11c3.02,8.09,1.51,18.18-4.56,30.32L609.69,818.01c-4.08,8.09-5.07,14.16-3.05,18.18l197,475.82
			C805.63,1316.09,806.69,1322.16,806.69,1330.22z M1324.94,1327.17c0,8.09-3.05,14.68-9.09,19.69c-6.07,5.07-13.17,7.58-21.23,7.58
			H955.19c-20.23,0-33.34-9.09-39.41-27.27L724.84,851.36c-2.02-4.02-3.02-10.09-3.02-18.18c0-12.14,3.02-22.23,9.09-30.32
			L1037,327.04c12.14-18.18,28.27-27.27,48.5-27.27h336.41c18.18,0,27.27,6.07,27.27,18.18c0,6.07-3.02,14.16-9.09,24.25
			l-309.14,475.82c-6.07,6.07-7.1,12.11-3.02,18.18l193.95,475.82C1323.88,1316.09,1324.94,1321.1,1324.94,1327.17z"/>
	</g>
</g>
</svg>
